<?xml version="1.0" standalone="no"?>
<!DOCTYPE svg PUBLIC "-//W3C//DTD SVG 20010904//EN"
 "http://www.w3.org/TR/2001/REC-SVG-20010904/DTD/svg10.dtd">
<svg version="1.0" xmlns="http://www.w3.org/2000/svg"
 width="1392.000000pt" height="1392.000000pt" viewBox="0 0 1392.000000 1392.000000"
 preserveAspectRatio="xMidYMid meet">
<metadata>
Created by potrace 1.14, written by Peter Selinger 2001-2017
</metadata>
<g transform="translate(0.000000,1392.000000) scale(0.100000,-0.100000)"
fill="#000000" stroke="none">
<path d="M7090 13395 c-30 -7 -70 -20 -88 -29 -43 -22 -104 -89 -118 -129 -9
-24 -18 -33 -40 -35 -16 -2 -33 -7 -39 -11 -5 -5 -28 -9 -50 -10 -22 0 -49 -3
-60 -6 -155 -37 -192 -45 -220 -45 -13 0 -27 -4 -30 -10 -3 -5 -21 -10 -39
-10 -17 0 -36 -4 -42 -9 -12 -12 -124 -41 -157 -41 -14 0 -27 -3 -29 -7 -5
-12 -99 -43 -128 -43 -14 -1 -33 -7 -43 -14 -10 -8 -50 -24 -90 -37 -40 -12
-81 -28 -92 -36 -11 -7 -27 -13 -37 -13 -10 0 -53 -17 -96 -39 -42 -21 -99
-49 -127 -61 -27 -12 -59 -30 -70 -40 -11 -10 -49 -33 -85 -51 -36 -18 -67
-35 -70 -38 -3 -4 -21 -15 -41 -26 -65 -36 -143 -101 -242 -200 -147 -149
-187 -191 -187 -198 0 -8 -59 -94 -87 -127 -10 -11 -18 -24 -19 -28 -1 -7 -25
-65 -44 -107 -11 -24 -37 -119 -45 -160 -2 -16 -21 -106 -40 -200 -20 -93 -45
-215 -56 -270 -10 -55 -30 -149 -44 -210 -13 -60 -36 -169 -51 -241 -14 -73
-30 -137 -33 -143 -7 -11 -57 -21 -176 -37 -27 -3 -58 -8 -68 -10 -16 -3 -89
-11 -167 -19 -14 -1 -59 -6 -100 -10 -265 -27 -665 -36 -965 -23 l-130 6 70
-64 c109 -101 238 -171 373 -204 29 -6 52 -15 51 -18 0 -4 -52 -32 -116 -62
-97 -46 -401 -207 -453 -240 -8 -5 -60 -37 -114 -71 -340 -211 -605 -460 -771
-724 -20 -33 -44 -71 -53 -85 -9 -14 -14 -26 -11 -26 2 -1 -3 -10 -12 -20 -28
-33 -108 -211 -104 -230 3 -11 14 -57 26 -104 11 -47 22 -92 24 -100 2 -8 10
-44 19 -80 8 -36 17 -76 20 -90 2 -14 15 -72 27 -130 32 -152 32 -152 -16
-167 -22 -8 -49 -18 -60 -23 -11 -6 -29 -13 -40 -15 -76 -18 -223 -78 -238
-96 -15 -18 -16 -35 -12 -108 4 -47 7 -107 8 -133 1 -27 7 -48 12 -48 6 0 3
-5 -5 -10 -9 -6 -11 -13 -5 -17 6 -5 10 -46 10 -93 0 -47 2 -89 4 -94 2 -5 5
-22 6 -37 3 -37 22 -53 65 -58 19 -2 46 -5 60 -6 14 -2 26 -4 28 -5 1 -1 5 -3
10 -4 10 -3 86 -19 92 -20 3 -1 20 -8 38 -16 25 -12 32 -21 33 -45 2 -32 3
-42 14 -120 4 -27 9 -63 11 -80 1 -16 6 -55 10 -85 3 -30 7 -70 8 -87 0 -18 3
-33 6 -33 3 0 5 -10 6 -22 0 -20 4 -48 19 -163 9 -61 25 -162 31 -195 3 -14 7
-36 9 -50 2 -14 11 -53 19 -87 8 -35 12 -63 10 -63 -3 0 0 -8 5 -17 5 -10 11
-31 14 -48 3 -16 15 -64 27 -105 12 -41 23 -79 24 -85 2 -5 8 -23 14 -38 7
-16 12 -33 12 -38 0 -5 4 -17 9 -27 8 -14 18 -37 26 -62 12 -37 85 -185 144
-293 46 -86 44 -67 25 -242 -3 -27 -7 -79 -10 -115 -4 -63 -8 -117 -19 -250
-11 -133 -16 -207 -19 -270 -2 -36 -4 -65 -5 -65 -1 0 -4 -49 -7 -110 -2 -60
-6 -141 -9 -180 -4 -71 -13 -282 -20 -480 -3 -60 -7 -231 -10 -380 -4 -160
-10 -272 -16 -276 -19 -11 -31 -945 -16 -1209 20 -353 42 -1352 37 -1700 -1
-47 -1 -89 -1 -95 1 -5 2 -75 4 -155 2 -80 7 -153 12 -163 21 -50 -289 -47
4753 -47 l4690 0 1 99 c1 54 4 108 6 120 2 11 7 85 10 163 4 79 9 175 11 213
3 39 6 603 8 1255 2 912 -1 1190 -10 1205 -8 13 -13 76 -14 180 -7 581 -23
1264 -35 1465 -2 41 -6 122 -9 180 -3 58 -8 143 -11 190 -3 47 -7 117 -10 155
-2 39 -4 70 -5 70 -1 0 -3 35 -6 78 -3 75 -2 80 29 125 83 119 211 361 269
507 37 92 63 174 60 188 -1 4 3 7 10 7 6 0 9 2 6 5 -3 3 3 36 14 73 11 37 21
78 24 91 3 12 12 53 20 90 9 36 18 77 20 91 2 14 6 36 10 50 3 14 8 39 10 55
10 76 12 90 14 90 1 0 3 16 5 35 2 19 4 35 5 35 3 0 19 104 24 160 1 11 4 25
7 30 2 6 4 25 4 43 0 17 2 32 5 32 3 0 6 19 6 43 1 23 5 58 8 77 4 19 9 53 12
75 2 22 6 51 8 65 3 14 5 30 5 35 2 19 17 35 37 39 10 3 37 11 59 18 22 8 47
14 55 13 8 0 18 4 22 10 5 6 8 5 8 -3 0 -9 5 -10 18 -3 10 5 32 8 50 7 24 -2
39 5 58 25 15 16 24 34 21 42 -3 8 -3 17 0 20 5 5 9 69 17 242 1 33 4 65 7 70
3 6 7 51 8 100 3 115 -1 119 -139 160 -3 1 -18 7 -33 13 -16 7 -30 12 -33 12
-4 0 -119 45 -209 81 -16 7 -34 13 -40 15 -5 1 -49 19 -97 38 -48 20 -95 36
-103 36 -8 0 -15 5 -15 11 0 6 -7 9 -15 5 -8 -3 -15 0 -15 6 0 6 -3 9 -6 5 -4
-3 -20 1 -36 9 -16 8 -32 12 -37 10 -17 -11 -33 21 -22 42 5 10 8 45 6 78 -17
221 -23 296 -30 339 -3 17 -7 48 -10 70 -5 36 -42 228 -50 265 -9 35 -46 167
-55 190 -64 180 -136 328 -219 450 -277 407 -695 692 -1431 978 -62 24 -75 33
-77 53 -1 13 -9 60 -17 104 -9 44 -16 94 -16 112 0 17 -4 35 -10 38 -5 3 -10
26 -10 50 0 24 -4 47 -10 50 -5 3 -10 19 -10 35 0 16 -4 32 -10 35 -5 3 -10
17 -10 31 0 14 -5 34 -11 45 -5 11 -12 32 -14 47 -5 35 -34 114 -46 127 -5 5
-9 16 -9 25 0 9 -11 38 -24 66 -12 27 -31 72 -42 99 -16 45 -90 183 -103 195
-3 3 -7 14 -9 25 -2 11 -23 45 -47 77 -24 31 -50 69 -58 85 -9 15 -25 35 -36
43 -12 8 -21 20 -21 27 0 7 -4 13 -10 13 -5 0 -10 5 -10 11 0 15 -72 102 -140
169 -159 156 -294 280 -305 280 -4 0 -29 19 -59 45 -6 6 -23 16 -38 24 -15 8
-37 22 -47 33 -11 10 -24 18 -29 18 -5 0 -17 9 -27 20 -10 11 -26 20 -37 20
-10 0 -18 4 -18 8 0 5 -23 19 -50 32 -28 13 -56 30 -62 37 -6 7 -18 13 -28 13
-10 0 -20 6 -23 14 -3 7 -21 16 -40 20 -19 4 -40 13 -47 21 -7 8 -17 15 -22
15 -6 0 -40 14 -77 31 -36 17 -84 40 -107 50 -22 10 -46 19 -53 19 -7 0 -25 6
-39 14 -15 8 -67 26 -117 41 -49 15 -97 30 -105 35 -8 4 -38 12 -66 19 -28 7
-68 18 -90 26 -36 12 -39 16 -46 61 -7 47 -35 83 -65 84 -7 0 -13 4 -13 8 0 7
-14 14 -115 53 -44 18 -93 24 -240 33 -22 1 -65 -3 -95 -9z"/>
</g>
</svg>
